<?xml version="1.0" standalone="no"?>
<!DOCTYPE svg PUBLIC "-//W3C//DTD SVG 20010904//EN"
 "http://www.w3.org/TR/2001/REC-SVG-20010904/DTD/svg10.dtd">
<svg version="1.0" xmlns="http://www.w3.org/2000/svg"
 width="24.000000pt" height="24.000000pt" viewBox="0 0 24.000000 24.000000"
 preserveAspectRatio="xMidYMid meet">

<g transform="translate(0.000000,24.000000) scale(0.100000,-0.100000)"
fill="#ff1d7c" stroke="none">
<path d="M30 211 c0 -16 -7 -34 -15 -41 -12 -10 -15 -30 -13 -89 l3 -76 115 0
115 0 3 76 c2 59 -1 79 -13 89 -8 7 -15 25 -15 41 l0 29 -90 0 -90 0 0 -29z
m170 -26 c0 -82 -75 -121 -132 -70 -23 20 -28 32 -28 70 l0 45 80 0 80 0 0
-45z m-172 -30 c-2 -8 13 -27 32 -44 l35 -30 -35 -31 -35 -32 32 22 c18 11 35
25 38 30 12 19 40 10 80 -25 l40 -34 -87 -1 c-117 0 -118 0 -118 70 0 55 6 90
17 90 2 0 3 -7 1 -15z m202 -73 c0 -69 -2 -70 -60 -22 l-25 20 37 31 c25 20
35 36 32 47 -5 15 -4 15 5 2 6 -8 11 -43 11 -78z"/>
<path d="M56 213 c-3 -3 -6 -16 -6 -27 0 -16 2 -18 9 -7 7 11 9 11 14 0 3 -8
6 -5 6 8 1 23 -12 37 -23 26z"/>
<path d="M160 194 c0 -23 1 -24 16 -10 8 9 12 20 9 26 -12 19 -25 10 -25 -16z"/>
<path d="M90 200 c0 -5 5 -10 11 -10 5 0 7 5 4 10 -3 6 -8 10 -11 10 -2 0 -4
-4 -4 -10z"/>
<path d="M135 197 c-4 -10 -5 -21 -1 -24 10 -10 18 4 13 24 -4 17 -4 17 -12 0z"/>
<path d="M88 153 c17 -2 47 -2 65 0 17 2 3 4 -33 4 -36 0 -50 -2 -32 -4z"/>
<path d="M98 133 c12 -2 32 -2 45 0 12 2 2 4 -23 4 -25 0 -35 -2 -22 -4z"/>
</g>
</svg>
